# xmcd
#
# Track frame offsets:
#	150
#	9983
#	20231
#	33143
#	44491
#	55812
#	69166
#	78633
#	89128
#	99898
#	110389
#	122940
#	133106
#	143178
#	154670
#	166652
#	177259
#	190403
#	201094
#	212738
#	224881
#	234946
#	245178
#	256914
#	268001
#	277633
#	289871
#	300232
#
# Disc length: 4156 seconds
#
# Revision: 0
# Processed by: cddbd v1.5.1PL0 Copyright (c) Steve Scherf et al.
# Submitted via: EasyCDDAExtractor 7.5.0.1
#
DISCID=94103a1c
DTITLE=Hank Thompson and Merle Travis - Thumbpicking and Singing
DYEAR=1900
DGENRE=estern Swing
TTITLE0=A Fooler A Faker
TTITLE1=Give a Little, Take a Little
TTITLE2=New Roving Gambler
TTITLE3=Crying in the Deep Blue Sea
TTITLE4=Quicksand
TTITLE5=John Henry
TTITLE6=Honey Honey Bee Ball
TTITLE7=Recipe For a Heartache
TTITLE8=Under the Double Eagle
TTITLE9=I Wasn't Even in the Running
TTITLE10=Just to Ease the Pain
TTITLE11=Wake Up Irene
TTITLE12=Don't Flirt With Me
TTITLE13=Old Faded Photograph
TTITLE14=Dry Bread
TTITLE15=Its Got to Be a Habit
TTITLE16=Wildwood Flower
TTITLE17=Cincinnati Lou
TTITLE18=Hangover Tavern
TTITLE19=Old Napoleon
TTITLE20=My Front Door is Open
TTITLE21=Lost John
TTITLE22=Hang Your Head in Shame
TTITLE23=This Train
TTITLE24=Six Pack to Go
TTITLE25=Weeping Willow
TTITLE26=How May Teardrops?
TTITLE27=Nine Pound Hammer
EXTD=
EXTT0=
EXTT1=
EXTT2=
EXTT3=
EXTT4=
EXTT5=
EXTT6=
EXTT7=
EXTT8=
EXTT9=
EXTT10=
EXTT11=
EXTT12=
EXTT13=
EXTT14=
EXTT15=
EXTT16=
EXTT17=
EXTT18=
EXTT19=
EXTT20=
EXTT21=
EXTT22=
EXTT23=
EXTT24=
EXTT25=
EXTT26=
EXTT27=
PLAYORDER=
